<svg width="382" height="74" viewBox="0 0 382 74" fill="none" xmlns="http://www.w3.org/2000/svg">
<rect x="0.5" y="0.5" width="381" height="72.2737" rx="36.1368" fill="white" fill-opacity="0.19" stroke="#6B7773"/>
<path d="M81.3764 45.2578V29.0338L74.2524 42.0338H72.3284L65.2304 29.0338V45.2578H62.3184V24.5878L66.0364 24.5878L73.2904 38.5498L80.5704 24.5878H84.2884V45.2578H81.3764ZM93.5005 29.6318C94.6272 29.6318 95.6499 29.8398 96.5685 30.2558C97.5045 30.6718 98.3019 31.2351 98.9605 31.9458C99.6192 32.6565 100.131 33.4971 100.495 34.4678C100.859 35.4211 101.041 36.4438 101.041 37.5358C101.041 38.6278 100.867 39.6591 100.521 40.6298C100.191 41.6005 99.6972 42.4411 99.0385 43.1518C98.3972 43.8625 97.6085 44.4258 96.6725 44.8418C95.7539 45.2578 94.6965 45.4658 93.5005 45.4658C92.3565 45.4658 91.3165 45.2578 90.3805 44.8418C89.4619 44.4258 88.6732 43.8625 88.0145 43.1518C87.3559 42.4411 86.8445 41.6005 86.4805 40.6298C86.1339 39.6591 85.9605 38.6278 85.9605 37.5358C85.9605 36.4438 86.1425 35.4211 86.5065 34.4678C86.8879 33.4971 87.4079 32.6565 88.0665 31.9458C88.7425 31.2351 89.5399 30.6718 90.4585 30.2558C91.3772 29.8398 92.3912 29.6318 93.5005 29.6318ZM93.5005 43.2558C94.2632 43.2558 94.9392 43.1171 95.5285 42.8398C96.1352 42.5451 96.6465 42.1465 97.0625 41.6438C97.4785 41.1238 97.7992 40.5171 98.0245 39.8238C98.2499 39.1305 98.3625 38.3678 98.3625 37.5358C98.3625 36.7385 98.2585 35.9931 98.0505 35.2998C97.8425 34.5891 97.5305 33.9825 97.1145 33.4798C96.7159 32.9771 96.2132 32.5785 95.6065 32.2838C94.9999 31.9891 94.2979 31.8418 93.5005 31.8418C92.7205 31.8418 92.0272 31.9891 91.4205 32.2838C90.8139 32.5611 90.3025 32.9511 89.8865 33.4538C89.4705 33.9565 89.1585 34.5545 88.9505 35.2478C88.7425 35.9411 88.6385 36.7038 88.6385 37.5358C88.6385 38.3505 88.7512 39.1045 88.9765 39.7978C89.2192 40.4911 89.5485 41.0978 89.9645 41.6178C90.3979 42.1205 90.9092 42.5191 91.4985 42.8138C92.1052 43.1085 92.7725 43.2558 93.5005 43.2558ZM115.863 45.2578H112.977V35.6378C112.977 35.2565 112.89 34.8665 112.717 34.4678C112.561 34.0518 112.318 33.6791 111.989 33.3498C111.677 33.0205 111.287 32.7518 110.819 32.5438C110.351 32.3185 109.822 32.2058 109.233 32.2058C108.73 32.2058 108.245 32.3011 107.777 32.4918C107.326 32.6825 106.927 32.9338 106.581 33.2458C106.234 33.5578 105.957 33.9218 105.749 34.3378C105.558 34.7365 105.463 35.1611 105.463 35.6118V45.2578H102.577V29.8138H105.463V32.6998C105.809 31.7985 106.416 31.0618 107.283 30.4898C108.149 29.9178 109.181 29.6318 110.377 29.6318C111.105 29.6318 111.798 29.7618 112.457 30.0218C113.133 30.2818 113.722 30.6631 114.225 31.1658C114.727 31.6511 115.126 32.2578 115.421 32.9858C115.715 33.6965 115.863 34.5111 115.863 35.4298V45.2578ZM133.098 24.5878V45.2578H130.212V41.9558C129.727 43.0478 129.034 43.9058 128.132 44.5298C127.248 45.1538 126.113 45.4658 124.726 45.4658C123.773 45.4658 122.889 45.2665 122.074 44.8678C121.277 44.4691 120.584 43.9231 119.994 43.2298C119.422 42.5191 118.972 41.6785 118.642 40.7078C118.313 39.7371 118.148 38.6798 118.148 37.5358C118.148 36.4438 118.296 35.4211 118.59 34.4678C118.885 33.4971 119.31 32.6565 119.864 31.9458C120.436 31.2178 121.13 30.6458 121.944 30.2298C122.759 29.8138 123.686 29.6058 124.726 29.6058C125.974 29.6058 127.066 29.9438 128.002 30.6198C128.938 31.2785 129.675 32.1711 130.212 33.2978V24.5878H133.098ZM125.714 43.2298C126.46 43.2298 127.11 43.0825 127.664 42.7878C128.219 42.4758 128.687 42.0598 129.068 41.5398C129.45 41.0198 129.736 40.4131 129.926 39.7198C130.117 39.0265 130.212 38.2898 130.212 37.5098C130.212 36.7471 130.1 36.0365 129.874 35.3778C129.666 34.7191 129.363 34.1558 128.964 33.6878C128.566 33.2025 128.089 32.8211 127.534 32.5438C126.997 32.2665 126.39 32.1278 125.714 32.1278C124.969 32.1278 124.302 32.2751 123.712 32.5698C123.14 32.8645 122.655 33.2631 122.256 33.7658C121.858 34.2685 121.554 34.8578 121.346 35.5338C121.138 36.2098 121.034 36.9291 121.034 37.6918C121.034 38.4891 121.147 39.2258 121.372 39.9018C121.615 40.5778 121.944 41.1671 122.36 41.6698C122.776 42.1551 123.27 42.5365 123.842 42.8138C124.414 43.0911 125.038 43.2298 125.714 43.2298ZM138.38 38.1598C138.45 38.9398 138.623 39.6418 138.9 40.2658C139.178 40.8898 139.533 41.4271 139.966 41.8778C140.4 42.3111 140.902 42.6491 141.474 42.8918C142.046 43.1171 142.653 43.2298 143.294 43.2298C144.386 43.2298 145.322 42.9265 146.102 42.3198C146.882 41.6958 147.454 40.8898 147.818 39.9018L150.21 40.2658C149.985 41.0285 149.664 41.7305 149.248 42.3718C148.85 42.9958 148.347 43.5418 147.74 44.0098C147.134 44.4605 146.432 44.8158 145.634 45.0758C144.854 45.3358 143.979 45.4658 143.008 45.4658C141.968 45.4658 140.989 45.2751 140.07 44.8938C139.152 44.5125 138.354 43.9838 137.678 43.3078C137.002 42.6145 136.465 41.7825 136.066 40.8118C135.668 39.8238 135.468 38.7318 135.468 37.5358C135.468 36.4438 135.659 35.4211 136.04 34.4678C136.422 33.4971 136.942 32.6565 137.6 31.9458C138.276 31.2351 139.074 30.6718 139.992 30.2558C140.911 29.8398 141.916 29.6318 143.008 29.6318C144.152 29.6318 145.184 29.8398 146.102 30.2558C147.038 30.6718 147.836 31.2351 148.494 31.9458C149.153 32.6565 149.664 33.4971 150.028 34.4678C150.392 35.4385 150.574 36.4698 150.574 37.5618C150.574 37.6485 150.574 37.7438 150.574 37.8478C150.574 37.9518 150.566 38.0558 150.548 38.1598H138.38ZM143.294 31.8678C142.618 31.8678 142.003 31.9805 141.448 32.2058C140.894 32.4311 140.408 32.7431 139.992 33.1418C139.576 33.5231 139.238 33.9825 138.978 34.5198C138.718 35.0398 138.554 35.5945 138.484 36.1838H148.104C148.035 35.5771 147.879 35.0138 147.636 34.4938C147.394 33.9738 147.073 33.5231 146.674 33.1418C146.276 32.7431 145.79 32.4311 145.218 32.2058C144.664 31.9805 144.022 31.8678 143.294 31.8678ZM178.61 37.5098C178.384 38.6538 178.02 39.7111 177.518 40.6818C177.032 41.6525 176.382 42.4931 175.568 43.2038C174.77 43.9145 173.8 44.4691 172.656 44.8678C171.529 45.2665 170.203 45.4658 168.678 45.4658C167.326 45.4658 166.043 45.2491 164.83 44.8158C163.616 44.3651 162.55 43.7065 161.632 42.8398C160.73 41.9558 160.011 40.8638 159.474 39.5638C158.936 38.2638 158.668 36.7558 158.668 35.0398C158.668 33.6011 158.893 32.2491 159.344 30.9838C159.812 29.7011 160.479 28.5918 161.346 27.6558C162.23 26.7025 163.296 25.9485 164.544 25.3938C165.792 24.8391 167.204 24.5618 168.782 24.5618C170.151 24.5618 171.39 24.7438 172.5 25.1078C173.609 25.4718 174.58 26.0005 175.412 26.6938C176.244 27.3698 176.928 28.1931 177.466 29.1638C178.003 30.1171 178.367 31.1918 178.558 32.3878L176.036 32.6738C175.862 31.8418 175.585 31.0791 175.204 30.3858C174.84 29.6751 174.372 29.0771 173.8 28.5918C173.228 28.0891 172.543 27.6991 171.746 27.4218C170.966 27.1445 170.082 27.0058 169.094 27.0058C167.95 27.0058 166.918 27.2138 166 27.6298C165.081 28.0458 164.301 28.6178 163.66 29.3458C163.018 30.0565 162.524 30.8971 162.178 31.8678C161.848 32.8385 161.684 33.8785 161.684 34.9878C161.684 36.0798 161.848 37.1111 162.178 38.0818C162.524 39.0525 163.01 39.9018 163.634 40.6298C164.275 41.3578 165.055 41.9298 165.974 42.3458C166.892 42.7618 167.932 42.9698 169.094 42.9698C170.082 42.9698 170.966 42.8311 171.746 42.5538C172.526 42.2591 173.202 41.8605 173.774 41.3578C174.363 40.8551 174.84 40.2571 175.204 39.5638C175.585 38.8705 175.862 38.1165 176.036 37.3018L178.61 37.5098ZM187.336 29.6318C188.463 29.6318 189.485 29.8398 190.404 30.2558C191.34 30.6718 192.137 31.2351 192.796 31.9458C193.455 32.6565 193.966 33.4971 194.33 34.4678C194.694 35.4211 194.876 36.4438 194.876 37.5358C194.876 38.6278 194.703 39.6591 194.356 40.6298C194.027 41.6005 193.533 42.4411 192.874 43.1518C192.233 43.8625 191.444 44.4258 190.508 44.8418C189.589 45.2578 188.532 45.4658 187.336 45.4658C186.192 45.4658 185.152 45.2578 184.216 44.8418C183.297 44.4258 182.509 43.8625 181.85 43.1518C181.191 42.4411 180.68 41.6005 180.316 40.6298C179.969 39.6591 179.796 38.6278 179.796 37.5358C179.796 36.4438 179.978 35.4211 180.342 34.4678C180.723 33.4971 181.243 32.6565 181.902 31.9458C182.578 31.2351 183.375 30.6718 184.294 30.2558C185.213 29.8398 186.227 29.6318 187.336 29.6318ZM187.336 43.2558C188.099 43.2558 188.775 43.1171 189.364 42.8398C189.971 42.5451 190.482 42.1465 190.898 41.6438C191.314 41.1238 191.635 40.5171 191.86 39.8238C192.085 39.1305 192.198 38.3678 192.198 37.5358C192.198 36.7385 192.094 35.9931 191.886 35.2998C191.678 34.5891 191.366 33.9825 190.95 33.4798C190.551 32.9771 190.049 32.5785 189.442 32.2838C188.835 31.9891 188.133 31.8418 187.336 31.8418C186.556 31.8418 185.863 31.9891 185.256 32.2838C184.649 32.5611 184.138 32.9511 183.722 33.4538C183.306 33.9565 182.994 34.5545 182.786 35.2478C182.578 35.9411 182.474 36.7038 182.474 37.5358C182.474 38.3505 182.587 39.1045 182.812 39.7978C183.055 40.4911 183.384 41.0978 183.8 41.6178C184.233 42.1205 184.745 42.5191 185.334 42.8138C185.941 43.1085 186.608 43.2558 187.336 43.2558ZM209.284 40.7858C209.284 41.4618 209.128 42.0858 208.816 42.6578C208.504 43.2298 208.062 43.7238 207.49 44.1398C206.918 44.5558 206.234 44.8851 205.436 45.1278C204.639 45.3531 203.755 45.4658 202.784 45.4658C201.71 45.4658 200.765 45.3098 199.95 44.9978C199.153 44.6858 198.477 44.2871 197.922 43.8018C197.368 43.2991 196.943 42.7531 196.648 42.1638C196.354 41.5571 196.18 40.9678 196.128 40.3958L198.754 40.0838C198.754 40.3438 198.824 40.6558 198.962 41.0198C199.118 41.3838 199.361 41.7305 199.69 42.0598C200.02 42.3891 200.436 42.6665 200.938 42.8918C201.458 43.1171 202.074 43.2298 202.784 43.2298C203.928 43.2298 204.795 43.0131 205.384 42.5798C205.991 42.1291 206.294 41.5745 206.294 40.9158C206.294 40.3611 206.052 39.9278 205.566 39.6158C205.098 39.2865 204.5 39.0178 203.772 38.8098C203.062 38.5845 202.282 38.3765 201.432 38.1858C200.6 37.9778 199.82 37.7091 199.092 37.3798C198.382 37.0505 197.784 36.6258 197.298 36.1058C196.83 35.5685 196.596 34.8578 196.596 33.9738C196.596 33.4018 196.726 32.8558 196.986 32.3358C197.264 31.8158 197.662 31.3565 198.182 30.9578C198.72 30.5418 199.378 30.2125 200.158 29.9698C200.938 29.7271 201.831 29.6058 202.836 29.6058C203.79 29.6058 204.639 29.7531 205.384 30.0478C206.147 30.3425 206.797 30.7151 207.334 31.1658C207.872 31.6165 208.288 32.1191 208.582 32.6738C208.894 33.2111 209.076 33.7311 209.128 34.2338L206.424 34.5458C206.424 34.2858 206.364 33.9998 206.242 33.6878C206.121 33.3585 205.904 33.0638 205.592 32.8038C205.298 32.5265 204.908 32.2925 204.422 32.1018C203.937 31.9111 203.33 31.8158 202.602 31.8158C201.701 31.8158 200.973 31.9891 200.418 32.3358C199.881 32.6651 199.612 33.1765 199.612 33.8698C199.612 34.3378 199.846 34.7105 200.314 34.9878C200.8 35.2478 201.398 35.4818 202.108 35.6898C202.836 35.8978 203.616 36.1145 204.448 36.3398C205.28 36.5478 206.052 36.8338 206.762 37.1978C207.49 37.5445 208.088 38.0038 208.556 38.5758C209.042 39.1478 209.284 39.8845 209.284 40.7858ZM233.646 35.4558V45.2578H230.786V35.6638C230.786 35.2825 230.726 34.8838 230.604 34.4678C230.483 34.0518 230.292 33.6791 230.032 33.3498C229.772 33.0205 229.434 32.7518 229.018 32.5438C228.62 32.3185 228.126 32.2058 227.536 32.2058C227.016 32.2058 226.548 32.3011 226.132 32.4918C225.716 32.6825 225.361 32.9338 225.066 33.2458C224.789 33.5578 224.572 33.9218 224.416 34.3378C224.26 34.7538 224.182 35.1785 224.182 35.6118V45.2578H221.296V35.6378C221.296 35.2565 221.227 34.8665 221.088 34.4678C220.95 34.0518 220.742 33.6791 220.464 33.3498C220.204 33.0031 219.866 32.7258 219.45 32.5178C219.034 32.3098 218.54 32.2058 217.968 32.2058C217.483 32.2058 217.032 32.3011 216.616 32.4918C216.218 32.6825 215.871 32.9338 215.576 33.2458C215.299 33.5578 215.082 33.9218 214.926 34.3378C214.77 34.7365 214.692 35.1525 214.692 35.5858V45.2578H211.806V29.9438H214.692V32.6998C215.091 31.7985 215.663 31.0618 216.408 30.4898C217.154 29.9178 218.046 29.6318 219.086 29.6318C220.196 29.6318 221.14 29.9091 221.92 30.4638C222.718 31.0011 223.342 31.7638 223.792 32.7518C224.139 31.8158 224.728 31.0618 225.56 30.4898C226.41 29.9178 227.406 29.6318 228.55 29.6318C229.209 29.6318 229.842 29.7618 230.448 30.0218C231.072 30.2818 231.618 30.6631 232.086 31.1658C232.554 31.6511 232.927 32.2578 233.204 32.9858C233.499 33.6965 233.646 34.5198 233.646 35.4558ZM239.731 38.1598C239.801 38.9398 239.974 39.6418 240.251 40.2658C240.529 40.8898 240.884 41.4271 241.317 41.8778C241.751 42.3111 242.253 42.6491 242.825 42.8918C243.397 43.1171 244.004 43.2298 244.645 43.2298C245.737 43.2298 246.673 42.9265 247.453 42.3198C248.233 41.6958 248.805 40.8898 249.169 39.9018L251.561 40.2658C251.336 41.0285 251.015 41.7305 250.599 42.3718C250.201 42.9958 249.698 43.5418 249.091 44.0098C248.485 44.4605 247.783 44.8158 246.985 45.0758C246.205 45.3358 245.33 45.4658 244.359 45.4658C243.319 45.4658 242.34 45.2751 241.421 44.8938C240.503 44.5125 239.705 43.9838 239.029 43.3078C238.353 42.6145 237.816 41.7825 237.417 40.8118C237.019 39.8238 236.819 38.7318 236.819 37.5358C236.819 36.4438 237.01 35.4211 237.391 34.4678C237.773 33.4971 238.293 32.6565 238.951 31.9458C239.627 31.2351 240.425 30.6718 241.343 30.2558C242.262 29.8398 243.267 29.6318 244.359 29.6318C245.503 29.6318 246.535 29.8398 247.453 30.2558C248.389 30.6718 249.187 31.2351 249.845 31.9458C250.504 32.6565 251.015 33.4971 251.379 34.4678C251.743 35.4385 251.925 36.4698 251.925 37.5618C251.925 37.6485 251.925 37.7438 251.925 37.8478C251.925 37.9518 251.917 38.0558 251.899 38.1598H239.731ZM244.645 31.8678C243.969 31.8678 243.354 31.9805 242.799 32.2058C242.245 32.4311 241.759 32.7431 241.343 33.1418C240.927 33.5231 240.589 33.9825 240.329 34.5198C240.069 35.0398 239.905 35.5945 239.835 36.1838H249.455C249.386 35.5771 249.23 35.0138 248.987 34.4938C248.745 33.9738 248.424 33.5231 248.025 33.1418C247.627 32.7431 247.141 32.4311 246.569 32.2058C246.015 31.9805 245.373 31.8678 244.645 31.8678ZM261.609 42.4498V44.6858C261.279 44.8938 260.95 45.0585 260.621 45.1798C260.309 45.2838 260.023 45.3531 259.763 45.3878C259.451 45.4571 259.165 45.4831 258.905 45.4658C258.35 45.4658 257.865 45.4051 257.449 45.2838C257.033 45.1798 256.669 45.0411 256.357 44.8678C256.062 44.6771 255.811 44.4605 255.603 44.2178C255.412 43.9751 255.256 43.7325 255.135 43.4898C254.823 42.9178 254.667 42.2505 254.667 41.4878V32.1018H252.509V30.4118C252.751 30.3771 252.959 30.3338 253.133 30.2818C253.323 30.2298 253.488 30.1691 253.627 30.0998C254.129 29.8571 254.528 29.5191 254.823 29.0858C255.117 28.6351 255.334 28.1931 255.473 27.7598C255.629 27.3091 255.724 26.9105 255.759 26.5638C255.811 26.2171 255.837 26.0091 255.837 25.9398H257.527V30.0998H261.557V32.1018H257.527C257.527 33.0205 257.527 33.8611 257.527 34.6238C257.527 35.3865 257.527 36.1145 257.527 36.8078C257.544 37.5011 257.553 38.1858 257.553 38.8618C257.553 39.5205 257.553 40.2138 257.553 40.9418C257.553 41.2538 257.587 41.5398 257.657 41.7998C257.726 42.0425 257.847 42.2591 258.021 42.4498C258.315 42.7618 258.783 42.9178 259.425 42.9178C259.771 42.9178 260.144 42.8745 260.543 42.7878C260.959 42.6838 261.314 42.5711 261.609 42.4498ZM267.367 23.4438V26.2518H263.571V23.4438H267.367ZM266.899 29.9178V45.2318H264.013V29.9178H266.899ZM281.775 50.5878V41.7998C281.237 42.9265 280.501 43.8191 279.565 44.4778C278.629 45.1365 277.537 45.4658 276.289 45.4658C275.249 45.4658 274.321 45.2578 273.507 44.8418C272.692 44.4258 271.999 43.8625 271.427 43.1518C270.872 42.4411 270.447 41.6005 270.153 40.6298C269.858 39.6591 269.711 38.6278 269.711 37.5358C269.711 36.3918 269.875 35.3431 270.205 34.3898C270.534 33.4191 270.985 32.5785 271.557 31.8678C272.146 31.1571 272.839 30.6025 273.637 30.2038C274.451 29.8051 275.335 29.6058 276.289 29.6058C277.675 29.6058 278.811 29.9178 279.695 30.5418C280.596 31.1658 281.289 32.0238 281.775 33.1158V29.8138H284.661V50.5878H281.775ZM281.775 37.5618C281.775 36.7991 281.679 36.0711 281.489 35.3778C281.298 34.6845 281.012 34.0778 280.631 33.5578C280.249 33.0378 279.781 32.6218 279.227 32.3098C278.672 31.9978 278.022 31.8418 277.277 31.8418C276.601 31.8418 275.977 31.9805 275.405 32.2578C274.833 32.5351 274.339 32.9251 273.923 33.4278C273.507 33.9131 273.177 34.5025 272.935 35.1958C272.709 35.8718 272.597 36.6085 272.597 37.4058C272.597 38.1685 272.701 38.8878 272.909 39.5638C273.117 40.2398 273.42 40.8291 273.819 41.3318C274.217 41.8345 274.703 42.2331 275.275 42.5278C275.864 42.8051 276.531 42.9438 277.277 42.9438C277.953 42.9438 278.559 42.8138 279.097 42.5538C279.651 42.2765 280.128 41.8951 280.527 41.4098C280.925 40.9245 281.229 40.3525 281.437 39.6938C281.662 39.0351 281.775 38.3245 281.775 37.5618ZM288.119 29.8398H291.031V39.4338C291.031 39.8325 291.109 40.2398 291.265 40.6558C291.438 41.0545 291.681 41.4185 291.993 41.7478C292.322 42.0771 292.721 42.3545 293.189 42.5798C293.657 42.7878 294.186 42.8918 294.775 42.8918C295.278 42.8918 295.754 42.7965 296.205 42.6058C296.673 42.4151 297.08 42.1638 297.427 41.8518C297.774 41.5398 298.042 41.1845 298.233 40.7858C298.441 40.3698 298.545 39.9365 298.545 39.4858V29.8398H301.431V45.2578H298.545V42.3978C298.198 43.2991 297.592 44.0358 296.725 44.6078C295.858 45.1798 294.827 45.4658 293.631 45.4658C292.903 45.4658 292.201 45.3358 291.525 45.0758C290.866 44.8158 290.277 44.4431 289.757 43.9578C289.254 43.4551 288.856 42.8485 288.561 42.1378C288.266 41.4098 288.119 40.5778 288.119 39.6418V29.8398ZM306.697 38.1598C306.766 38.9398 306.939 39.6418 307.217 40.2658C307.494 40.8898 307.849 41.4271 308.283 41.8778C308.716 42.3111 309.219 42.6491 309.791 42.8918C310.363 43.1171 310.969 43.2298 311.611 43.2298C312.703 43.2298 313.639 42.9265 314.419 42.3198C315.199 41.6958 315.771 40.8898 316.135 39.9018L318.527 40.2658C318.301 41.0285 317.981 41.7305 317.565 42.3718C317.166 42.9958 316.663 43.5418 316.057 44.0098C315.45 44.4605 314.748 44.8158 313.951 45.0758C313.171 45.3358 312.295 45.4658 311.325 45.4658C310.285 45.4658 309.305 45.2751 308.387 44.8938C307.468 44.5125 306.671 43.9838 305.995 43.3078C305.319 42.6145 304.781 41.7825 304.383 40.8118C303.984 39.8238 303.785 38.7318 303.785 37.5358C303.785 36.4438 303.975 35.4211 304.357 34.4678C304.738 33.4971 305.258 32.6565 305.917 31.9458C306.593 31.2351 307.39 30.6718 308.309 30.2558C309.227 29.8398 310.233 29.6318 311.325 29.6318C312.469 29.6318 313.5 29.8398 314.419 30.2558C315.355 30.6718 316.152 31.2351 316.811 31.9458C317.469 32.6565 317.981 33.4971 318.345 34.4678C318.709 35.4385 318.891 36.4698 318.891 37.5618C318.891 37.6485 318.891 37.7438 318.891 37.8478C318.891 37.9518 318.882 38.0558 318.865 38.1598H306.697ZM311.611 31.8678C310.935 31.8678 310.319 31.9805 309.765 32.2058C309.21 32.4311 308.725 32.7431 308.309 33.1418C307.893 33.5231 307.555 33.9825 307.295 34.5198C307.035 35.0398 306.87 35.5945 306.801 36.1838H316.421C316.351 35.5771 316.195 35.0138 315.953 34.4938C315.71 33.9738 315.389 33.5231 314.991 33.1418C314.592 32.7431 314.107 32.4311 313.535 32.2058C312.98 31.9805 312.339 31.8678 311.611 31.8678Z" fill="#6B7773"/>
</svg>
