<svg width="346" height="37" viewBox="0 0 346 37" fill="none" xmlns="http://www.w3.org/2000/svg">
<path d="M25.6543 29.3672V7.52719L16.0643 25.0272H13.4743L3.91933 7.52719V29.3672H-0.000668272V1.54219H5.00433L14.7693 20.3372L24.5693 1.54219H29.5743V29.3672H25.6543ZM41.9753 8.33219C43.4919 8.33219 44.8686 8.61219 46.1053 9.17219C47.3653 9.73219 48.4386 10.4905 49.3253 11.4472C50.2119 12.4039 50.9003 13.5355 51.3903 14.8422C51.8803 16.1255 52.1253 17.5022 52.1253 18.9722C52.1253 20.4422 51.8919 21.8305 51.4253 23.1372C50.9819 24.4439 50.3169 25.5755 49.4303 26.5322C48.5669 27.4889 47.5053 28.2472 46.2453 28.8072C45.0086 29.3672 43.5853 29.6472 41.9753 29.6472C40.4353 29.6472 39.0353 29.3672 37.7753 28.8072C36.5386 28.2472 35.4769 27.4889 34.5903 26.5322C33.7036 25.5755 33.0153 24.4439 32.5253 23.1372C32.0586 21.8305 31.8253 20.4422 31.8253 18.9722C31.8253 17.5022 32.0703 16.1255 32.5603 14.8422C33.0736 13.5355 33.7736 12.4039 34.6603 11.4472C35.5703 10.4905 36.6436 9.73219 37.8803 9.17219C39.1169 8.61219 40.4819 8.33219 41.9753 8.33219ZM41.9753 26.6722C43.0019 26.6722 43.9119 26.4855 44.7053 26.1122C45.5219 25.7155 46.2103 25.1789 46.7703 24.5022C47.3303 23.8022 47.7619 22.9855 48.0653 22.0522C48.3686 21.1189 48.5203 20.0922 48.5203 18.9722C48.5203 17.8989 48.3803 16.8955 48.1003 15.9622C47.8203 15.0055 47.4003 14.1889 46.8403 13.5122C46.3036 12.8355 45.6269 12.2989 44.8103 11.9022C43.9936 11.5055 43.0486 11.3072 41.9753 11.3072C40.9253 11.3072 39.9919 11.5055 39.1753 11.9022C38.3586 12.2755 37.6703 12.8005 37.1103 13.4772C36.5503 14.1539 36.1303 14.9589 35.8503 15.8922C35.5703 16.8255 35.4303 17.8522 35.4303 18.9722C35.4303 20.0689 35.5819 21.0839 35.8853 22.0172C36.2119 22.9505 36.6553 23.7672 37.2153 24.4672C37.7986 25.1439 38.4869 25.6805 39.2803 26.0772C40.0969 26.4739 40.9953 26.6722 41.9753 26.6722ZM72.0783 29.3672H68.1933V16.4172C68.1933 15.9039 68.0766 15.3789 67.8433 14.8422C67.6333 14.2822 67.3066 13.7805 66.8633 13.3372C66.4433 12.8939 65.9183 12.5322 65.2883 12.2522C64.6583 11.9489 63.9466 11.7972 63.1533 11.7972C62.4766 11.7972 61.8233 11.9255 61.1933 12.1822C60.5866 12.4389 60.0499 12.7772 59.5833 13.1972C59.1166 13.6172 58.7433 14.1072 58.4633 14.6672C58.2066 15.2039 58.0783 15.7755 58.0783 16.3822V29.3672H54.1933V8.57719H58.0783V12.4622C58.5449 11.2489 59.3616 10.2572 60.5283 9.48719C61.6949 8.71719 63.0833 8.33219 64.6933 8.33219C65.6733 8.33219 66.6066 8.50719 67.4933 8.85719C68.4033 9.20719 69.1966 9.72052 69.8733 10.3972C70.5499 11.0505 71.0866 11.8672 71.4833 12.8472C71.8799 13.8039 72.0783 14.9005 72.0783 16.1372V29.3672ZM95.28 1.54219V29.3672H91.395V24.9222C90.7417 26.3922 89.8083 27.5472 88.595 28.3872C87.405 29.2272 85.8767 29.6472 84.01 29.6472C82.7267 29.6472 81.5367 29.3789 80.44 28.8422C79.3667 28.3055 78.4333 27.5705 77.64 26.6372C76.87 25.6805 76.2633 24.5489 75.82 23.2422C75.3767 21.9355 75.155 20.5122 75.155 18.9722C75.155 17.5022 75.3533 16.1255 75.75 14.8422C76.1467 13.5355 76.7183 12.4039 77.465 11.4472C78.235 10.4672 79.1683 9.69719 80.265 9.13719C81.3617 8.57719 82.61 8.29719 84.01 8.29719C85.69 8.29719 87.16 8.75219 88.42 9.66219C89.68 10.5489 90.6717 11.7505 91.395 13.2672V1.54219H95.28ZM85.34 26.6372C86.3433 26.6372 87.2183 26.4389 87.965 26.0422C88.7117 25.6222 89.3417 25.0622 89.855 24.3622C90.3683 23.6622 90.7533 22.8455 91.01 21.9122C91.2667 20.9789 91.395 19.9872 91.395 18.9372C91.395 17.9105 91.2433 16.9539 90.94 16.0672C90.66 15.1805 90.2517 14.4222 89.715 13.7922C89.1783 13.1389 88.5367 12.6255 87.79 12.2522C87.0667 11.8789 86.25 11.6922 85.34 11.6922C84.3367 11.6922 83.4383 11.8905 82.645 12.2872C81.875 12.6839 81.2217 13.2205 80.685 13.8972C80.1483 14.5739 79.74 15.3672 79.46 16.2772C79.18 17.1872 79.04 18.1555 79.04 19.1822C79.04 20.2555 79.1917 21.2472 79.495 22.1572C79.8217 23.0672 80.265 23.8605 80.825 24.5372C81.385 25.1905 82.05 25.7039 82.82 26.0772C83.59 26.4505 84.43 26.6372 85.34 26.6372ZM102.39 19.8122C102.484 20.8622 102.717 21.8072 103.09 22.6472C103.464 23.4872 103.942 24.2105 104.525 24.8172C105.109 25.4005 105.785 25.8555 106.555 26.1822C107.325 26.4855 108.142 26.6372 109.005 26.6372C110.475 26.6372 111.735 26.2289 112.785 25.4122C113.835 24.5722 114.605 23.4872 115.095 22.1572L118.315 22.6472C118.012 23.6739 117.58 24.6189 117.02 25.4822C116.484 26.3222 115.807 27.0572 114.99 27.6872C114.174 28.2939 113.229 28.7722 112.155 29.1222C111.105 29.4722 109.927 29.6472 108.62 29.6472C107.22 29.6472 105.902 29.3905 104.665 28.8772C103.429 28.3639 102.355 27.6522 101.445 26.7422C100.535 25.8089 99.8119 24.6889 99.2752 23.3822C98.7385 22.0522 98.4702 20.5822 98.4702 18.9722C98.4702 17.5022 98.7269 16.1255 99.2402 14.8422C99.7535 13.5355 100.454 12.4039 101.34 11.4472C102.25 10.4905 103.324 9.73219 104.56 9.17219C105.797 8.61219 107.15 8.33219 108.62 8.33219C110.16 8.33219 111.549 8.61219 112.785 9.17219C114.045 9.73219 115.119 10.4905 116.005 11.4472C116.892 12.4039 117.58 13.5355 118.07 14.8422C118.56 16.1489 118.805 17.5372 118.805 19.0072C118.805 19.1239 118.805 19.2522 118.805 19.3922C118.805 19.5322 118.794 19.6722 118.77 19.8122H102.39ZM109.005 11.3422C108.095 11.3422 107.267 11.4939 106.52 11.7972C105.774 12.1005 105.12 12.5205 104.56 13.0572C104 13.5705 103.545 14.1889 103.195 14.9122C102.845 15.6122 102.624 16.3589 102.53 17.1522H115.48C115.387 16.3355 115.177 15.5772 114.85 14.8772C114.524 14.1772 114.092 13.5705 113.555 13.0572C113.019 12.5205 112.365 12.1005 111.595 11.7972C110.849 11.4939 109.985 11.3422 109.005 11.3422ZM156.545 18.9372C156.242 20.4772 155.752 21.9005 155.075 23.2072C154.422 24.5139 153.547 25.6455 152.45 26.6022C151.377 27.5589 150.07 28.3055 148.53 28.8422C147.014 29.3789 145.229 29.6472 143.175 29.6472C141.355 29.6472 139.629 29.3555 137.995 28.7722C136.362 28.1655 134.927 27.2789 133.69 26.1122C132.477 24.9222 131.509 23.4522 130.785 21.7022C130.062 19.9522 129.7 17.9222 129.7 15.6122C129.7 13.6755 130.004 11.8555 130.61 10.1522C131.24 8.42552 132.139 6.93219 133.305 5.67219C134.495 4.38885 135.93 3.37385 137.61 2.62719C139.29 1.88052 141.192 1.50719 143.315 1.50719C145.159 1.50719 146.827 1.75219 148.32 2.24219C149.814 2.73219 151.12 3.44385 152.24 4.37719C153.36 5.28719 154.282 6.39552 155.005 7.70219C155.729 8.98552 156.219 10.4322 156.475 12.0422L153.08 12.4272C152.847 11.3072 152.474 10.2805 151.96 9.34719C151.47 8.39052 150.84 7.58552 150.07 6.93219C149.3 6.25552 148.379 5.73052 147.305 5.35719C146.255 4.98385 145.065 4.79719 143.735 4.79719C142.195 4.79719 140.807 5.07719 139.57 5.63719C138.334 6.19719 137.284 6.96719 136.42 7.94719C135.557 8.90385 134.892 10.0355 134.425 11.3422C133.982 12.6489 133.76 14.0489 133.76 15.5422C133.76 17.0122 133.982 18.4005 134.425 19.7072C134.892 21.0139 135.545 22.1572 136.385 23.1372C137.249 24.1172 138.299 24.8872 139.535 25.4472C140.772 26.0072 142.172 26.2872 143.735 26.2872C145.065 26.2872 146.255 26.1005 147.305 25.7272C148.355 25.3305 149.265 24.7939 150.035 24.1172C150.829 23.4405 151.47 22.6355 151.96 21.7022C152.474 20.7689 152.847 19.7539 153.08 18.6572L156.545 18.9372ZM168.292 8.33219C169.809 8.33219 171.186 8.61219 172.422 9.17219C173.682 9.73219 174.756 10.4905 175.642 11.4472C176.529 12.4039 177.217 13.5355 177.707 14.8422C178.197 16.1255 178.442 17.5022 178.442 18.9722C178.442 20.4422 178.209 21.8305 177.742 23.1372C177.299 24.4439 176.634 25.5755 175.747 26.5322C174.884 27.4889 173.822 28.2472 172.562 28.8072C171.326 29.3672 169.902 29.6472 168.292 29.6472C166.752 29.6472 165.352 29.3672 164.092 28.8072C162.856 28.2472 161.794 27.4889 160.907 26.5322C160.021 25.5755 159.332 24.4439 158.842 23.1372C158.376 21.8305 158.142 20.4422 158.142 18.9722C158.142 17.5022 158.387 16.1255 158.877 14.8422C159.391 13.5355 160.091 12.4039 160.977 11.4472C161.887 10.4905 162.961 9.73219 164.197 9.17219C165.434 8.61219 166.799 8.33219 168.292 8.33219ZM168.292 26.6722C169.319 26.6722 170.229 26.4855 171.022 26.1122C171.839 25.7155 172.527 25.1789 173.087 24.5022C173.647 23.8022 174.079 22.9855 174.382 22.0522C174.686 21.1189 174.837 20.0922 174.837 18.9722C174.837 17.8989 174.697 16.8955 174.417 15.9622C174.137 15.0055 173.717 14.1889 173.157 13.5122C172.621 12.8355 171.944 12.2989 171.127 11.9022C170.311 11.5055 169.366 11.3072 168.292 11.3072C167.242 11.3072 166.309 11.5055 165.492 11.9022C164.676 12.2755 163.987 12.8005 163.427 13.4772C162.867 14.1539 162.447 14.9589 162.167 15.8922C161.887 16.8255 161.747 17.8522 161.747 18.9722C161.747 20.0689 161.899 21.0839 162.202 22.0172C162.529 22.9505 162.972 23.7672 163.532 24.4672C164.116 25.1439 164.804 25.6805 165.597 26.0772C166.414 26.4739 167.312 26.6722 168.292 26.6722ZM197.838 23.3472C197.838 24.2572 197.628 25.0972 197.208 25.8672C196.788 26.6372 196.193 27.3022 195.423 27.8622C194.653 28.4222 193.731 28.8655 192.658 29.1922C191.585 29.4955 190.395 29.6472 189.088 29.6472C187.641 29.6472 186.37 29.4372 185.273 29.0172C184.2 28.5972 183.29 28.0605 182.543 27.4072C181.796 26.7305 181.225 25.9955 180.828 25.2022C180.431 24.3855 180.198 23.5922 180.128 22.8222L183.663 22.4022C183.663 22.7522 183.756 23.1722 183.943 23.6622C184.153 24.1522 184.48 24.6189 184.923 25.0622C185.366 25.5055 185.926 25.8789 186.603 26.1822C187.303 26.4855 188.131 26.6372 189.088 26.6372C190.628 26.6372 191.795 26.3455 192.588 25.7622C193.405 25.1555 193.813 24.4089 193.813 23.5222C193.813 22.7755 193.486 22.1922 192.833 21.7722C192.203 21.3289 191.398 20.9672 190.418 20.6872C189.461 20.3839 188.411 20.1039 187.268 19.8472C186.148 19.5672 185.098 19.2055 184.118 18.7622C183.161 18.3189 182.356 17.7472 181.703 17.0472C181.073 16.3239 180.758 15.3672 180.758 14.1772C180.758 13.4072 180.933 12.6722 181.283 11.9722C181.656 11.2722 182.193 10.6539 182.893 10.1172C183.616 9.55719 184.503 9.11385 185.553 8.78719C186.603 8.46052 187.805 8.29719 189.158 8.29719C190.441 8.29719 191.585 8.49552 192.588 8.89219C193.615 9.28885 194.49 9.79052 195.213 10.3972C195.936 11.0039 196.496 11.6805 196.893 12.4272C197.313 13.1505 197.558 13.8505 197.628 14.5272L193.988 14.9472C193.988 14.5972 193.906 14.2122 193.743 13.7922C193.58 13.3489 193.288 12.9522 192.868 12.6022C192.471 12.2289 191.946 11.9139 191.293 11.6572C190.64 11.4005 189.823 11.2722 188.843 11.2722C187.63 11.2722 186.65 11.5055 185.903 11.9722C185.18 12.4155 184.818 13.1039 184.818 14.0372C184.818 14.6672 185.133 15.1689 185.763 15.5422C186.416 15.8922 187.221 16.2072 188.178 16.4872C189.158 16.7672 190.208 17.0589 191.328 17.3622C192.448 17.6422 193.486 18.0272 194.443 18.5172C195.423 18.9839 196.228 19.6022 196.858 20.3722C197.511 21.1422 197.838 22.1339 197.838 23.3472ZM230.633 16.1722V29.3672H226.783V16.4522C226.783 15.9389 226.701 15.4022 226.538 14.8422C226.375 14.2822 226.118 13.7805 225.768 13.3372C225.418 12.8939 224.963 12.5322 224.403 12.2522C223.866 11.9489 223.201 11.7972 222.408 11.7972C221.708 11.7972 221.078 11.9255 220.518 12.1822C219.958 12.4389 219.48 12.7772 219.083 13.1972C218.71 13.6172 218.418 14.1072 218.208 14.6672C217.998 15.2272 217.893 15.7989 217.893 16.3822V29.3672H214.008V16.4172C214.008 15.9039 213.915 15.3789 213.728 14.8422C213.541 14.2822 213.261 13.7805 212.888 13.3372C212.538 12.8705 212.083 12.4972 211.523 12.2172C210.963 11.9372 210.298 11.7972 209.528 11.7972C208.875 11.7972 208.268 11.9255 207.708 12.1822C207.171 12.4389 206.705 12.7772 206.308 13.1972C205.935 13.6172 205.643 14.1072 205.433 14.6672C205.223 15.2039 205.118 15.7639 205.118 16.3472V29.3672H201.233V8.75219H205.118V12.4622C205.655 11.2489 206.425 10.2572 207.428 9.48719C208.431 8.71719 209.633 8.33219 211.033 8.33219C212.526 8.33219 213.798 8.70552 214.848 9.45219C215.921 10.1755 216.761 11.2022 217.368 12.5322C217.835 11.2722 218.628 10.2572 219.748 9.48719C220.891 8.71719 222.233 8.33219 223.773 8.33219C224.66 8.33219 225.511 8.50719 226.328 8.85719C227.168 9.20719 227.903 9.72052 228.533 10.3972C229.163 11.0505 229.665 11.8672 230.038 12.8472C230.435 13.8039 230.633 14.9122 230.633 16.1722ZM238.825 19.8122C238.918 20.8622 239.151 21.8072 239.525 22.6472C239.898 23.4872 240.376 24.2105 240.96 24.8172C241.543 25.4005 242.22 25.8555 242.99 26.1822C243.76 26.4855 244.576 26.6372 245.44 26.6372C246.91 26.6372 248.17 26.2289 249.22 25.4122C250.27 24.5722 251.04 23.4872 251.53 22.1572L254.75 22.6472C254.446 23.6739 254.015 24.6189 253.455 25.4822C252.918 26.3222 252.241 27.0572 251.425 27.6872C250.608 28.2939 249.663 28.7722 248.59 29.1222C247.54 29.4722 246.361 29.6472 245.055 29.6472C243.655 29.6472 242.336 29.3905 241.1 28.8772C239.863 28.3639 238.79 27.6522 237.88 26.7422C236.97 25.8089 236.246 24.6889 235.71 23.3822C235.173 22.0522 234.905 20.5822 234.905 18.9722C234.905 17.5022 235.161 16.1255 235.675 14.8422C236.188 13.5355 236.888 12.4039 237.775 11.4472C238.685 10.4905 239.758 9.73219 240.995 9.17219C242.231 8.61219 243.585 8.33219 245.055 8.33219C246.595 8.33219 247.983 8.61219 249.22 9.17219C250.48 9.73219 251.553 10.4905 252.44 11.4472C253.326 12.4039 254.015 13.5355 254.505 14.8422C254.995 16.1489 255.24 17.5372 255.24 19.0072C255.24 19.1239 255.24 19.2522 255.24 19.3922C255.24 19.5322 255.228 19.6722 255.205 19.8122H238.825ZM245.44 11.3422C244.53 11.3422 243.701 11.4939 242.955 11.7972C242.208 12.1005 241.555 12.5205 240.995 13.0572C240.435 13.5705 239.98 14.1889 239.63 14.9122C239.28 15.6122 239.058 16.3589 238.965 17.1522H251.915C251.821 16.3355 251.611 15.5772 251.285 14.8772C250.958 14.1772 250.526 13.5705 249.99 13.0572C249.453 12.5205 248.8 12.1005 248.03 11.7972C247.283 11.4939 246.42 11.3422 245.44 11.3422ZM268.275 25.5872V28.5972C267.832 28.8772 267.388 29.0989 266.945 29.2622C266.525 29.4022 266.14 29.4955 265.79 29.5422C265.37 29.6355 264.985 29.6705 264.635 29.6472C263.888 29.6472 263.235 29.5655 262.675 29.4022C262.115 29.2622 261.625 29.0755 261.205 28.8422C260.808 28.5855 260.47 28.2939 260.19 27.9672C259.933 27.6405 259.723 27.3139 259.56 26.9872C259.14 26.2172 258.93 25.3189 258.93 24.2922V11.6572H256.025V9.38219C256.352 9.33552 256.632 9.27719 256.865 9.20719C257.122 9.13719 257.343 9.05552 257.53 8.96219C258.207 8.63552 258.743 8.18052 259.14 7.59719C259.537 6.99052 259.828 6.39552 260.015 5.81219C260.225 5.20552 260.353 4.66885 260.4 4.20219C260.47 3.73552 260.505 3.45552 260.505 3.36219H262.78V8.96219H268.205V11.6572H262.78C262.78 12.8939 262.78 14.0255 262.78 15.0522C262.78 16.0789 262.78 17.0589 262.78 17.9922C262.803 18.9255 262.815 19.8472 262.815 20.7572C262.815 21.6439 262.815 22.5772 262.815 23.5572C262.815 23.9772 262.862 24.3622 262.955 24.7122C263.048 25.0389 263.212 25.3305 263.445 25.5872C263.842 26.0072 264.472 26.2172 265.335 26.2172C265.802 26.2172 266.303 26.1589 266.84 26.0422C267.4 25.9022 267.878 25.7505 268.275 25.5872ZM276.027 0.00218588V3.78219H270.917V0.00218588H276.027ZM275.397 8.71719V29.3322H271.512V8.71719H275.397ZM295.421 36.5422V24.7122C294.698 26.2289 293.706 27.4305 292.446 28.3172C291.186 29.2039 289.716 29.6472 288.036 29.6472C286.636 29.6472 285.388 29.3672 284.291 28.8072C283.195 28.2472 282.261 27.4889 281.491 26.5322C280.745 25.5755 280.173 24.4439 279.776 23.1372C279.38 21.8305 279.181 20.4422 279.181 18.9722C279.181 17.4322 279.403 16.0205 279.846 14.7372C280.29 13.4305 280.896 12.2989 281.666 11.3422C282.46 10.3855 283.393 9.63885 284.466 9.10219C285.563 8.56552 286.753 8.29719 288.036 8.29719C289.903 8.29719 291.431 8.71719 292.621 9.55719C293.835 10.3972 294.768 11.5522 295.421 13.0222V8.57719H299.306V36.5422H295.421ZM295.421 19.0072C295.421 17.9805 295.293 17.0005 295.036 16.0672C294.78 15.1339 294.395 14.3172 293.881 13.6172C293.368 12.9172 292.738 12.3572 291.991 11.9372C291.245 11.5172 290.37 11.3072 289.366 11.3072C288.456 11.3072 287.616 11.4939 286.846 11.8672C286.076 12.2405 285.411 12.7655 284.851 13.4422C284.291 14.0955 283.848 14.8889 283.521 15.8222C283.218 16.7322 283.066 17.7239 283.066 18.7972C283.066 19.8239 283.206 20.7922 283.486 21.7022C283.766 22.6122 284.175 23.4055 284.711 24.0822C285.248 24.7589 285.901 25.2955 286.671 25.6922C287.465 26.0655 288.363 26.2522 289.366 26.2522C290.276 26.2522 291.093 26.0772 291.816 25.7272C292.563 25.3539 293.205 24.8405 293.741 24.1872C294.278 23.5339 294.686 22.7639 294.966 21.8772C295.27 20.9905 295.421 20.0339 295.421 19.0072ZM303.961 8.61219H307.881V21.5272C307.881 22.0639 307.986 22.6122 308.196 23.1722C308.43 23.7089 308.756 24.1989 309.176 24.6422C309.62 25.0855 310.156 25.4589 310.786 25.7622C311.416 26.0422 312.128 26.1822 312.921 26.1822C313.598 26.1822 314.24 26.0539 314.846 25.7972C315.476 25.5405 316.025 25.2022 316.491 24.7822C316.958 24.3622 317.32 23.8839 317.576 23.3472C317.856 22.7872 317.996 22.2039 317.996 21.5972V8.61219H321.881V29.3672H317.996V25.5172C317.53 26.7305 316.713 27.7222 315.546 28.4922C314.38 29.2622 312.991 29.6472 311.381 29.6472C310.401 29.6472 309.456 29.4722 308.546 29.1222C307.66 28.7722 306.866 28.2705 306.166 27.6172C305.49 26.9405 304.953 26.1239 304.556 25.1672C304.16 24.1872 303.961 23.0672 303.961 21.8072V8.61219ZM328.97 19.8122C329.063 20.8622 329.297 21.8072 329.67 22.6472C330.043 23.4872 330.522 24.2105 331.105 24.8172C331.688 25.4005 332.365 25.8555 333.135 26.1822C333.905 26.4855 334.722 26.6372 335.585 26.6372C337.055 26.6372 338.315 26.2289 339.365 25.4122C340.415 24.5722 341.185 23.4872 341.675 22.1572L344.895 22.6472C344.592 23.6739 344.16 24.6189 343.6 25.4822C343.063 26.3222 342.387 27.0572 341.57 27.6872C340.753 28.2939 339.808 28.7722 338.735 29.1222C337.685 29.4722 336.507 29.6472 335.2 29.6472C333.8 29.6472 332.482 29.3905 331.245 28.8772C330.008 28.3639 328.935 27.6522 328.025 26.7422C327.115 25.8089 326.392 24.6889 325.855 23.3822C325.318 22.0522 325.05 20.5822 325.05 18.9722C325.05 17.5022 325.307 16.1255 325.82 14.8422C326.333 13.5355 327.033 12.4039 327.92 11.4472C328.83 10.4905 329.903 9.73219 331.14 9.17219C332.377 8.61219 333.73 8.33219 335.2 8.33219C336.74 8.33219 338.128 8.61219 339.365 9.17219C340.625 9.73219 341.698 10.4905 342.585 11.4472C343.472 12.4039 344.16 13.5355 344.65 14.8422C345.14 16.1489 345.385 17.5372 345.385 19.0072C345.385 19.1239 345.385 19.2522 345.385 19.3922C345.385 19.5322 345.373 19.6722 345.35 19.8122H328.97ZM335.585 11.3422C334.675 11.3422 333.847 11.4939 333.1 11.7972C332.353 12.1005 331.7 12.5205 331.14 13.0572C330.58 13.5705 330.125 14.1889 329.775 14.9122C329.425 15.6122 329.203 16.3589 329.11 17.1522H342.06C341.967 16.3355 341.757 15.5772 341.43 14.8772C341.103 14.1772 340.672 13.5705 340.135 13.0572C339.598 12.5205 338.945 12.1005 338.175 11.7972C337.428 11.4939 336.565 11.3422 335.585 11.3422Z" fill="#030303"/>
</svg>
