<svg width="507" height="98" viewBox="0 0 507 98" fill="none" xmlns="http://www.w3.org/2000/svg">
<rect x="1" y="1" width="504.68" height="95.1893" rx="47.5946" fill="white" fill-opacity="0.19" stroke="white" stroke-width="2"/>
<path d="M105.775 60.1953V38.3553L96.1854 55.8553H93.5954L84.0404 38.3553V60.1953H80.1204V32.3703H85.1254L94.8904 51.1653L104.69 32.3703H109.695V60.1953H105.775ZM122.096 39.1603C123.613 39.1603 124.99 39.4403 126.226 40.0003C127.486 40.5603 128.56 41.3186 129.446 42.2753C130.333 43.232 131.021 44.3636 131.511 45.6703C132.001 46.9536 132.246 48.3303 132.246 49.8003C132.246 51.2703 132.013 52.6586 131.546 53.9653C131.103 55.272 130.438 56.4036 129.551 57.3603C128.688 58.317 127.626 59.0753 126.366 59.6353C125.13 60.1953 123.706 60.4753 122.096 60.4753C120.556 60.4753 119.156 60.1953 117.896 59.6353C116.66 59.0753 115.598 58.317 114.711 57.3603C113.825 56.4036 113.136 55.272 112.646 53.9653C112.18 52.6586 111.946 51.2703 111.946 49.8003C111.946 48.3303 112.191 46.9536 112.681 45.6703C113.195 44.3636 113.895 43.232 114.781 42.2753C115.691 41.3186 116.765 40.5603 118.001 40.0003C119.238 39.4403 120.603 39.1603 122.096 39.1603ZM122.096 57.5003C123.123 57.5003 124.033 57.3136 124.826 56.9403C125.643 56.5436 126.331 56.007 126.891 55.3303C127.451 54.6303 127.883 53.8136 128.186 52.8803C128.49 51.947 128.641 50.9203 128.641 49.8003C128.641 48.727 128.501 47.7236 128.221 46.7903C127.941 45.8336 127.521 45.017 126.961 44.3403C126.425 43.6636 125.748 43.127 124.931 42.7303C124.115 42.3336 123.17 42.1353 122.096 42.1353C121.046 42.1353 120.113 42.3336 119.296 42.7303C118.48 43.1036 117.791 43.6286 117.231 44.3053C116.671 44.982 116.251 45.787 115.971 46.7203C115.691 47.6536 115.551 48.6803 115.551 49.8003C115.551 50.897 115.703 51.912 116.006 52.8453C116.333 53.7786 116.776 54.5953 117.336 55.2953C117.92 55.972 118.608 56.5086 119.401 56.9053C120.218 57.302 121.116 57.5003 122.096 57.5003ZM152.199 60.1953H148.314V47.2453C148.314 46.732 148.198 46.207 147.964 45.6703C147.754 45.1103 147.428 44.6086 146.984 44.1653C146.564 43.722 146.039 43.3603 145.409 43.0803C144.779 42.777 144.068 42.6253 143.274 42.6253C142.598 42.6253 141.944 42.7536 141.314 43.0103C140.708 43.267 140.171 43.6053 139.704 44.0253C139.238 44.4453 138.864 44.9353 138.584 45.4953C138.328 46.032 138.199 46.6036 138.199 47.2103V60.1953H134.314V39.4053H138.199V43.2903C138.666 42.077 139.483 41.0853 140.649 40.3153C141.816 39.5453 143.204 39.1603 144.814 39.1603C145.794 39.1603 146.728 39.3353 147.614 39.6853C148.524 40.0353 149.318 40.5486 149.994 41.2253C150.671 41.8786 151.208 42.6953 151.604 43.6753C152.001 44.632 152.199 45.7286 152.199 46.9653V60.1953ZM175.401 32.3703V60.1953H171.516V55.7503C170.863 57.2203 169.929 58.3753 168.716 59.2153C167.526 60.0553 165.998 60.4753 164.131 60.4753C162.848 60.4753 161.658 60.207 160.561 59.6703C159.488 59.1336 158.554 58.3986 157.761 57.4653C156.991 56.5086 156.384 55.377 155.941 54.0703C155.498 52.7636 155.276 51.3403 155.276 49.8003C155.276 48.3303 155.474 46.9536 155.871 45.6703C156.268 44.3636 156.839 43.232 157.586 42.2753C158.356 41.2953 159.289 40.5253 160.386 39.9653C161.483 39.4053 162.731 39.1253 164.131 39.1253C165.811 39.1253 167.281 39.5803 168.541 40.4903C169.801 41.377 170.793 42.5786 171.516 44.0953V32.3703H175.401ZM165.461 57.4653C166.464 57.4653 167.339 57.267 168.086 56.8703C168.833 56.4503 169.463 55.8903 169.976 55.1903C170.489 54.4903 170.874 53.6736 171.131 52.7403C171.388 51.807 171.516 50.8153 171.516 49.7653C171.516 48.7386 171.364 47.782 171.061 46.8953C170.781 46.0086 170.373 45.2503 169.836 44.6203C169.299 43.967 168.658 43.4536 167.911 43.0803C167.188 42.707 166.371 42.5203 165.461 42.5203C164.458 42.5203 163.559 42.7186 162.766 43.1153C161.996 43.512 161.343 44.0486 160.806 44.7253C160.269 45.402 159.861 46.1953 159.581 47.1053C159.301 48.0153 159.161 48.9836 159.161 50.0103C159.161 51.0836 159.313 52.0753 159.616 52.9853C159.943 53.8953 160.386 54.6886 160.946 55.3653C161.506 56.0186 162.171 56.532 162.941 56.9053C163.711 57.2786 164.551 57.4653 165.461 57.4653ZM182.511 50.6403C182.605 51.6903 182.838 52.6353 183.211 53.4753C183.585 54.3153 184.063 55.0386 184.646 55.6453C185.23 56.2286 185.906 56.6836 186.676 57.0103C187.446 57.3136 188.263 57.4653 189.126 57.4653C190.596 57.4653 191.856 57.057 192.906 56.2403C193.956 55.4003 194.726 54.3153 195.216 52.9853L198.436 53.4753C198.133 54.502 197.701 55.447 197.141 56.3103C196.605 57.1503 195.928 57.8853 195.111 58.5153C194.295 59.122 193.35 59.6003 192.276 59.9503C191.226 60.3003 190.048 60.4753 188.741 60.4753C187.341 60.4753 186.023 60.2186 184.786 59.7053C183.55 59.192 182.476 58.4803 181.566 57.5703C180.656 56.637 179.933 55.517 179.396 54.2103C178.86 52.8803 178.591 51.4103 178.591 49.8003C178.591 48.3303 178.848 46.9536 179.361 45.6703C179.875 44.3636 180.575 43.232 181.461 42.2753C182.371 41.3186 183.445 40.5603 184.681 40.0003C185.918 39.4403 187.271 39.1603 188.741 39.1603C190.281 39.1603 191.67 39.4403 192.906 40.0003C194.166 40.5603 195.24 41.3186 196.126 42.2753C197.013 43.232 197.701 44.3636 198.191 45.6703C198.681 46.977 198.926 48.3653 198.926 49.8353C198.926 49.952 198.926 50.0803 198.926 50.2203C198.926 50.3603 198.915 50.5003 198.891 50.6403H182.511ZM189.126 42.1703C188.216 42.1703 187.388 42.322 186.641 42.6253C185.895 42.9286 185.241 43.3486 184.681 43.8853C184.121 44.3986 183.666 45.017 183.316 45.7403C182.966 46.4403 182.745 47.187 182.651 47.9803H195.601C195.508 47.1636 195.298 46.4053 194.971 45.7053C194.645 45.0053 194.213 44.3986 193.676 43.8853C193.14 43.3486 192.486 42.9286 191.716 42.6253C190.97 42.322 190.106 42.1703 189.126 42.1703ZM236.666 49.7653C236.363 51.3053 235.873 52.7286 235.196 54.0353C234.543 55.342 233.668 56.4736 232.571 57.4303C231.498 58.387 230.191 59.1336 228.651 59.6703C227.135 60.207 225.35 60.4753 223.296 60.4753C221.476 60.4753 219.75 60.1836 218.116 59.6003C216.483 58.9936 215.048 58.107 213.811 56.9403C212.598 55.7503 211.63 54.2803 210.906 52.5303C210.183 50.7803 209.821 48.7503 209.821 46.4403C209.821 44.5036 210.125 42.6836 210.731 40.9803C211.361 39.2536 212.26 37.7603 213.426 36.5003C214.616 35.217 216.051 34.202 217.731 33.4553C219.411 32.7086 221.313 32.3353 223.436 32.3353C225.28 32.3353 226.948 32.5803 228.441 33.0703C229.935 33.5603 231.241 34.272 232.361 35.2053C233.481 36.1153 234.403 37.2236 235.126 38.5303C235.85 39.8136 236.34 41.2603 236.596 42.8703L233.201 43.2553C232.968 42.1353 232.595 41.1086 232.081 40.1753C231.591 39.2186 230.961 38.4136 230.191 37.7603C229.421 37.0836 228.5 36.5586 227.426 36.1853C226.376 35.812 225.186 35.6253 223.856 35.6253C222.316 35.6253 220.928 35.9053 219.691 36.4653C218.455 37.0253 217.405 37.7953 216.541 38.7753C215.678 39.732 215.013 40.8636 214.546 42.1703C214.103 43.477 213.881 44.877 213.881 46.3703C213.881 47.8403 214.103 49.2286 214.546 50.5353C215.013 51.842 215.666 52.9853 216.506 53.9653C217.37 54.9453 218.42 55.7153 219.656 56.2753C220.893 56.8353 222.293 57.1153 223.856 57.1153C225.186 57.1153 226.376 56.9286 227.426 56.5553C228.476 56.1586 229.386 55.622 230.156 54.9453C230.95 54.2686 231.591 53.4636 232.081 52.5303C232.595 51.597 232.968 50.582 233.201 49.4853L236.666 49.7653ZM248.414 39.1603C249.93 39.1603 251.307 39.4403 252.544 40.0003C253.804 40.5603 254.877 41.3186 255.764 42.2753C256.65 43.232 257.339 44.3636 257.829 45.6703C258.319 46.9536 258.564 48.3303 258.564 49.8003C258.564 51.2703 258.33 52.6586 257.864 53.9653C257.42 55.272 256.755 56.4036 255.869 57.3603C255.005 58.317 253.944 59.0753 252.684 59.6353C251.447 60.1953 250.024 60.4753 248.414 60.4753C246.874 60.4753 245.474 60.1953 244.214 59.6353C242.977 59.0753 241.915 58.317 241.029 57.3603C240.142 56.4036 239.454 55.272 238.964 53.9653C238.497 52.6586 238.264 51.2703 238.264 49.8003C238.264 48.3303 238.509 46.9536 238.999 45.6703C239.512 44.3636 240.212 43.232 241.099 42.2753C242.009 41.3186 243.082 40.5603 244.319 40.0003C245.555 39.4403 246.92 39.1603 248.414 39.1603ZM248.414 57.5003C249.44 57.5003 250.35 57.3136 251.144 56.9403C251.96 56.5436 252.649 56.007 253.209 55.3303C253.769 54.6303 254.2 53.8136 254.504 52.8803C254.807 51.947 254.959 50.9203 254.959 49.8003C254.959 48.727 254.819 47.7236 254.539 46.7903C254.259 45.8336 253.839 45.017 253.279 44.3403C252.742 43.6636 252.065 43.127 251.249 42.7303C250.432 42.3336 249.487 42.1353 248.414 42.1353C247.364 42.1353 246.43 42.3336 245.614 42.7303C244.797 43.1036 244.109 43.6286 243.549 44.3053C242.989 44.982 242.569 45.787 242.289 46.7203C242.009 47.6536 241.869 48.6803 241.869 49.8003C241.869 50.897 242.02 51.912 242.324 52.8453C242.65 53.7786 243.094 54.5953 243.654 55.2953C244.237 55.972 244.925 56.5086 245.719 56.9053C246.535 57.302 247.434 57.5003 248.414 57.5003ZM277.959 54.1753C277.959 55.0853 277.749 55.9253 277.329 56.6953C276.909 57.4653 276.314 58.1303 275.544 58.6903C274.774 59.2503 273.852 59.6936 272.779 60.0203C271.706 60.3236 270.516 60.4753 269.209 60.4753C267.762 60.4753 266.491 60.2653 265.394 59.8453C264.321 59.4253 263.411 58.8886 262.664 58.2353C261.917 57.5586 261.346 56.8236 260.949 56.0303C260.552 55.2136 260.319 54.4203 260.249 53.6503L263.784 53.2303C263.784 53.5803 263.877 54.0003 264.064 54.4903C264.274 54.9803 264.601 55.447 265.044 55.8903C265.487 56.3336 266.047 56.707 266.724 57.0103C267.424 57.3136 268.252 57.4653 269.209 57.4653C270.749 57.4653 271.916 57.1736 272.709 56.5903C273.526 55.9836 273.934 55.237 273.934 54.3503C273.934 53.6036 273.607 53.0203 272.954 52.6003C272.324 52.157 271.519 51.7953 270.539 51.5153C269.582 51.212 268.532 50.932 267.389 50.6753C266.269 50.3953 265.219 50.0336 264.239 49.5903C263.282 49.147 262.477 48.5753 261.824 47.8753C261.194 47.152 260.879 46.1953 260.879 45.0053C260.879 44.2353 261.054 43.5003 261.404 42.8003C261.777 42.1003 262.314 41.482 263.014 40.9453C263.737 40.3853 264.624 39.942 265.674 39.6153C266.724 39.2886 267.926 39.1253 269.279 39.1253C270.562 39.1253 271.706 39.3236 272.709 39.7203C273.736 40.117 274.611 40.6186 275.334 41.2253C276.057 41.832 276.617 42.5086 277.014 43.2553C277.434 43.9786 277.679 44.6786 277.749 45.3553L274.109 45.7753C274.109 45.4253 274.027 45.0403 273.864 44.6203C273.701 44.177 273.409 43.7803 272.989 43.4303C272.592 43.057 272.067 42.742 271.414 42.4853C270.761 42.2286 269.944 42.1003 268.964 42.1003C267.751 42.1003 266.771 42.3336 266.024 42.8003C265.301 43.2436 264.939 43.932 264.939 44.8653C264.939 45.4953 265.254 45.997 265.884 46.3703C266.537 46.7203 267.342 47.0353 268.299 47.3153C269.279 47.5953 270.329 47.887 271.449 48.1903C272.569 48.4703 273.607 48.8553 274.564 49.3453C275.544 49.812 276.349 50.4303 276.979 51.2003C277.632 51.9703 277.959 52.962 277.959 54.1753ZM310.754 47.0003V60.1953H306.904V47.2803C306.904 46.767 306.822 46.2303 306.659 45.6703C306.496 45.1103 306.239 44.6086 305.889 44.1653C305.539 43.722 305.084 43.3603 304.524 43.0803C303.987 42.777 303.322 42.6253 302.529 42.6253C301.829 42.6253 301.199 42.7536 300.639 43.0103C300.079 43.267 299.601 43.6053 299.204 44.0253C298.831 44.4453 298.539 44.9353 298.329 45.4953C298.119 46.0553 298.014 46.627 298.014 47.2103V60.1953H294.129V47.2453C294.129 46.732 294.036 46.207 293.849 45.6703C293.662 45.1103 293.382 44.6086 293.009 44.1653C292.659 43.6986 292.204 43.3253 291.644 43.0453C291.084 42.7653 290.419 42.6253 289.649 42.6253C288.996 42.6253 288.389 42.7536 287.829 43.0103C287.292 43.267 286.826 43.6053 286.429 44.0253C286.056 44.4453 285.764 44.9353 285.554 45.4953C285.344 46.032 285.239 46.592 285.239 47.1753V60.1953H281.354V39.5803H285.239V43.2903C285.776 42.077 286.546 41.0853 287.549 40.3153C288.552 39.5453 289.754 39.1603 291.154 39.1603C292.647 39.1603 293.919 39.5336 294.969 40.2803C296.042 41.0036 296.882 42.0303 297.489 43.3603C297.956 42.1003 298.749 41.0853 299.869 40.3153C301.012 39.5453 302.354 39.1603 303.894 39.1603C304.781 39.1603 305.632 39.3353 306.449 39.6853C307.289 40.0353 308.024 40.5486 308.654 41.2253C309.284 41.8786 309.786 42.6953 310.159 43.6753C310.556 44.632 310.754 45.7403 310.754 47.0003ZM318.946 50.6403C319.039 51.6903 319.272 52.6353 319.646 53.4753C320.019 54.3153 320.497 55.0386 321.081 55.6453C321.664 56.2286 322.341 56.6836 323.111 57.0103C323.881 57.3136 324.697 57.4653 325.561 57.4653C327.031 57.4653 328.291 57.057 329.341 56.2403C330.391 55.4003 331.161 54.3153 331.651 52.9853L334.871 53.4753C334.567 54.502 334.136 55.447 333.576 56.3103C333.039 57.1503 332.362 57.8853 331.546 58.5153C330.729 59.122 329.784 59.6003 328.711 59.9503C327.661 60.3003 326.482 60.4753 325.176 60.4753C323.776 60.4753 322.457 60.2186 321.221 59.7053C319.984 59.192 318.911 58.4803 318.001 57.5703C317.091 56.637 316.367 55.517 315.831 54.2103C315.294 52.8803 315.026 51.4103 315.026 49.8003C315.026 48.3303 315.282 46.9536 315.796 45.6703C316.309 44.3636 317.009 43.232 317.896 42.2753C318.806 41.3186 319.879 40.5603 321.116 40.0003C322.352 39.4403 323.706 39.1603 325.176 39.1603C326.716 39.1603 328.104 39.4403 329.341 40.0003C330.601 40.5603 331.674 41.3186 332.561 42.2753C333.447 43.232 334.136 44.3636 334.626 45.6703C335.116 46.977 335.361 48.3653 335.361 49.8353C335.361 49.952 335.361 50.0803 335.361 50.2203C335.361 50.3603 335.349 50.5003 335.326 50.6403H318.946ZM325.561 42.1703C324.651 42.1703 323.822 42.322 323.076 42.6253C322.329 42.9286 321.676 43.3486 321.116 43.8853C320.556 44.3986 320.101 45.017 319.751 45.7403C319.401 46.4403 319.179 47.187 319.086 47.9803H332.036C331.942 47.1636 331.732 46.4053 331.406 45.7053C331.079 45.0053 330.647 44.3986 330.111 43.8853C329.574 43.3486 328.921 42.9286 328.151 42.6253C327.404 42.322 326.541 42.1703 325.561 42.1703ZM348.396 56.4153V59.4253C347.953 59.7053 347.509 59.927 347.066 60.0903C346.646 60.2303 346.261 60.3236 345.911 60.3703C345.491 60.4636 345.106 60.4986 344.756 60.4753C344.009 60.4753 343.356 60.3936 342.796 60.2303C342.236 60.0903 341.746 59.9036 341.326 59.6703C340.929 59.4136 340.591 59.122 340.311 58.7953C340.054 58.4686 339.844 58.142 339.681 57.8153C339.261 57.0453 339.051 56.147 339.051 55.1203V42.4853H336.146V40.2103C336.473 40.1636 336.753 40.1053 336.986 40.0353C337.243 39.9653 337.464 39.8836 337.651 39.7903C338.328 39.4636 338.864 39.0086 339.261 38.4253C339.658 37.8186 339.949 37.2236 340.136 36.6403C340.346 36.0336 340.474 35.497 340.521 35.0303C340.591 34.5636 340.626 34.2836 340.626 34.1903H342.901V39.7903H348.326V42.4853H342.901C342.901 43.722 342.901 44.8536 342.901 45.8803C342.901 46.907 342.901 47.887 342.901 48.8203C342.924 49.7536 342.936 50.6753 342.936 51.5853C342.936 52.472 342.936 53.4053 342.936 54.3853C342.936 54.8053 342.983 55.1903 343.076 55.5403C343.169 55.867 343.333 56.1586 343.566 56.4153C343.963 56.8353 344.593 57.0453 345.456 57.0453C345.923 57.0453 346.424 56.987 346.961 56.8703C347.521 56.7303 347.999 56.5786 348.396 56.4153ZM356.148 30.8303V34.6103H351.038V30.8303H356.148ZM355.518 39.5453V60.1603H351.633V39.5453H355.518ZM375.542 67.3703V55.5403C374.819 57.057 373.827 58.2586 372.567 59.1453C371.307 60.032 369.837 60.4753 368.157 60.4753C366.757 60.4753 365.509 60.1953 364.412 59.6353C363.316 59.0753 362.382 58.317 361.612 57.3603C360.866 56.4036 360.294 55.272 359.897 53.9653C359.501 52.6586 359.302 51.2703 359.302 49.8003C359.302 48.2603 359.524 46.8486 359.967 45.5653C360.411 44.2586 361.017 43.127 361.787 42.1703C362.581 41.2136 363.514 40.467 364.587 39.9303C365.684 39.3936 366.874 39.1253 368.157 39.1253C370.024 39.1253 371.552 39.5453 372.742 40.3853C373.956 41.2253 374.889 42.3803 375.542 43.8503V39.4053H379.427V67.3703H375.542ZM375.542 49.8353C375.542 48.8086 375.414 47.8286 375.157 46.8953C374.901 45.962 374.516 45.1453 374.002 44.4453C373.489 43.7453 372.859 43.1853 372.112 42.7653C371.366 42.3453 370.491 42.1353 369.487 42.1353C368.577 42.1353 367.737 42.322 366.967 42.6953C366.197 43.0686 365.532 43.5936 364.972 44.2703C364.412 44.9236 363.969 45.717 363.642 46.6503C363.339 47.5603 363.187 48.552 363.187 49.6253C363.187 50.652 363.327 51.6203 363.607 52.5303C363.887 53.4403 364.296 54.2336 364.832 54.9103C365.369 55.587 366.022 56.1236 366.792 56.5203C367.586 56.8936 368.484 57.0803 369.487 57.0803C370.397 57.0803 371.214 56.9053 371.937 56.5553C372.684 56.182 373.326 55.6686 373.862 55.0153C374.399 54.362 374.807 53.592 375.087 52.7053C375.391 51.8186 375.542 50.862 375.542 49.8353ZM384.083 39.4403H388.003V52.3553C388.003 52.892 388.108 53.4403 388.318 54.0003C388.551 54.537 388.878 55.027 389.298 55.4703C389.741 55.9136 390.278 56.287 390.908 56.5903C391.538 56.8703 392.249 57.0103 393.043 57.0103C393.719 57.0103 394.361 56.882 394.968 56.6253C395.598 56.3686 396.146 56.0303 396.613 55.6103C397.079 55.1903 397.441 54.712 397.698 54.1753C397.978 53.6153 398.118 53.032 398.118 52.4253V39.4403H402.003V60.1953H398.118V56.3453C397.651 57.5586 396.834 58.5503 395.668 59.3203C394.501 60.0903 393.113 60.4753 391.503 60.4753C390.523 60.4753 389.578 60.3003 388.668 59.9503C387.781 59.6003 386.988 59.0986 386.288 58.4453C385.611 57.7686 385.074 56.952 384.678 55.9953C384.281 55.0153 384.083 53.8953 384.083 52.6353V39.4403ZM409.091 50.6403C409.184 51.6903 409.418 52.6353 409.791 53.4753C410.164 54.3153 410.643 55.0386 411.226 55.6453C411.809 56.2286 412.486 56.6836 413.256 57.0103C414.026 57.3136 414.843 57.4653 415.706 57.4653C417.176 57.4653 418.436 57.057 419.486 56.2403C420.536 55.4003 421.306 54.3153 421.796 52.9853L425.016 53.4753C424.713 54.502 424.281 55.447 423.721 56.3103C423.184 57.1503 422.508 57.8853 421.691 58.5153C420.874 59.122 419.929 59.6003 418.856 59.9503C417.806 60.3003 416.628 60.4753 415.321 60.4753C413.921 60.4753 412.603 60.2186 411.366 59.7053C410.129 59.192 409.056 58.4803 408.146 57.5703C407.236 56.637 406.513 55.517 405.976 54.2103C405.439 52.8803 405.171 51.4103 405.171 49.8003C405.171 48.3303 405.428 46.9536 405.941 45.6703C406.454 44.3636 407.154 43.232 408.041 42.2753C408.951 41.3186 410.024 40.5603 411.261 40.0003C412.498 39.4403 413.851 39.1603 415.321 39.1603C416.861 39.1603 418.249 39.4403 419.486 40.0003C420.746 40.5603 421.819 41.3186 422.706 42.2753C423.593 43.232 424.281 44.3636 424.771 45.6703C425.261 46.977 425.506 48.3653 425.506 49.8353C425.506 49.952 425.506 50.0803 425.506 50.2203C425.506 50.3603 425.494 50.5003 425.471 50.6403H409.091ZM415.706 42.1703C414.796 42.1703 413.968 42.322 413.221 42.6253C412.474 42.9286 411.821 43.3486 411.261 43.8853C410.701 44.3986 410.246 45.017 409.896 45.7403C409.546 46.4403 409.324 47.187 409.231 47.9803H422.181C422.088 47.1636 421.878 46.4053 421.551 45.7053C421.224 45.0053 420.793 44.3986 420.256 43.8853C419.719 43.3486 419.066 42.9286 418.296 42.6253C417.549 42.322 416.686 42.1703 415.706 42.1703Z" fill="white"/>
</svg>
